<?xml version="1.0" encoding="utf-8"?>
<!-- Generator: Adobe Illustrator 19.2.1, SVG Export Plug-In . SVG Version: 6.00 Build 0)  -->
<svg version="1.1" id="Layer_1" xmlns="http://www.w3.org/2000/svg" xmlns:xlink="http://www.w3.org/1999/xlink" x="0px" y="0px"
	 viewBox="0 0 30 30" style="enable-background:new 0 0 30 30;" xml:space="preserve">
<style type="text/css">
	.st0{fill:#FFFFFF;}
</style>
<g id="T">
	<path class="st0" d="M15.002,30l4.197-23.604c4,0,5.262,0.439,5.444,2.229c0,0,2.684-1.001,4.037-3.033
		c-5.282-2.447-10.589-2.558-10.589-2.558l-3.097,3.772l0.007,0l-3.097-3.772c0,0-5.307,0.11-10.588,2.558
		c1.352,2.032,4.037,3.033,4.037,3.033c0.183-1.791,1.444-2.229,5.417-2.232L15.002,30"/>
	<path class="st0" d="M15,1.945c4.27-0.033,9.157,0.66,14.159,2.841C29.828,3.583,30,3.051,30,3.051
		c-5.469-2.164-10.59-2.904-15.001-2.923C10.589,0.147,5.468,0.887,0,3.051c0,0,0.244,0.655,0.84,1.735
		C5.842,2.606,10.73,1.913,15,1.945L15,1.945"/>
</g>
</svg>
